<?xml version="1.0" standalone="no"?>
<!DOCTYPE svg PUBLIC "-//W3C//DTD SVG 20010904//EN"
 "http://www.w3.org/TR/2001/REC-SVG-20010904/DTD/svg10.dtd">
<svg version="1.0" xmlns="http://www.w3.org/2000/svg"
 width="2160.000000pt" height="2160.000000pt" viewBox="0 0 2160.000000 2160.000000"
 preserveAspectRatio="xMidYMid meet">
<metadata>
Created by potrace 1.14, written by Peter Selinger 2001-2017
</metadata>
<g transform="translate(0.000000,2160.000000) scale(0.100000,-0.100000)"
fill="#000000" stroke="none">
<path d="M0 10800 l0 -10800 10800 0 10800 0 0 10800 0 10800 -10800 0 -10800
0 0 -10800z m13968 3758 c325 -677 591 -1232 590 -1234 -4 -3 -2722 199 -2727
203 -5 3 57 96 359 541 134 197 162 245 150 252 -8 5 -76 33 -150 61 -271 103
-623 188 -930 226 -182 22 -696 25 -865 5 -511 -61 -932 -187 -1375 -413
-1135 -577 -1923 -1682 -2100 -2947 -124 -882 55 -1773 513 -2551 54 -93 55
-93 70 -70 8 13 677 1220 1487 2682 l1473 2657 93 0 c93 0 93 0 85 -22 -5 -13
-551 -1408 -1215 -3102 -663 -1693 -1206 -3082 -1206 -3087 0 -11 226 -192
340 -271 894 -621 1984 -843 3057 -622 600 123 1212 418 1686 812 71 59 88 78
85 96 -4 17 -2310 5933 -2393 6139 l-24 58 91 -3 92 -3 1482 -2673 c815 -1470
1484 -2675 1486 -2677 7 -8 123 192 197 341 205 409 326 816 387 1299 23 176
26 677 6 860 -18 161 -55 374 -91 518 l-29 119 22 9 c51 22 901 328 903 325 9
-9 94 -371 117 -496 56 -312 76 -541 76 -876 0 -272 -9 -424 -40 -662 -211
-1607 -1234 -3030 -2695 -3747 -549 -269 -1087 -421 -1725 -487 -166 -17 -725
-17 -890 0 -832 87 -1563 342 -2235 780 -293 191 -520 376 -785 642 -350 350
-610 694 -841 1116 -548 1000 -729 2189 -503 3314 302 1506 1278 2769 2669
3452 488 240 1016 392 1605 464 178 21 707 30 895 15 622 -51 1157 -191 1741
-457 7 -3 67 76 140 183 259 382 316 463 322 463 4 0 274 -555 600 -1232z"/>
</g>
</svg>
