<?xml version="1.0" standalone="no"?>
<!DOCTYPE svg PUBLIC "-//W3C//DTD SVG 20010904//EN"
 "http://www.w3.org/TR/2001/REC-SVG-20010904/DTD/svg10.dtd">
<svg version="1.0" xmlns="http://www.w3.org/2000/svg"
 width="1080.000000pt" height="1080.000000pt" viewBox="0 0 1080.000000 1080.000000"
 preserveAspectRatio="xMidYMid meet">
<metadata>
Created by potrace 1.14, written by Peter Selinger 2001-2017
</metadata>
<g transform="translate(0.000000,1080.000000) scale(0.100000,-0.100000)"
fill="#000000" stroke="none">
<path d="M0 5400 l0 -5400 5400 0 5400 0 0 5400 0 5400 -5400 0 -5400 0 0
-5400z m6986 1875 c161 -335 292 -610 291 -612 -4 -4 -1351 98 -1356 103 -2 2
55 91 127 198 l132 194 -83 32 c-362 139 -810 161 -1196 60 -603 -159 -1105
-610 -1330 -1195 -161 -420 -172 -890 -29 -1320 38 -115 149 -355 186 -404
l19 -23 19 33 c11 19 346 622 744 1342 l725 1307 44 0 c37 0 43 -3 39 -18 -3
-10 -276 -710 -608 -1557 l-603 -1538 38 -31 c276 -225 583 -366 930 -427 168
-30 474 -32 630 -5 215 37 379 88 561 176 152 74 438 270 430 295 -2 6 -273
699 -601 1540 -329 842 -600 1538 -603 1548 -4 14 2 17 36 17 23 0 44 -5 49
-12 4 -7 339 -608 743 -1336 404 -729 739 -1325 745 -1325 14 1 119 202 165
320 136 345 170 740 95 1111 -14 69 -24 126 -22 128 9 10 450 165 454 160 12
-12 54 -200 74 -331 26 -165 31 -480 11 -635 -73 -560 -318 -1065 -702 -1450
-408 -407 -939 -656 -1520 -711 -150 -14 -421 -6 -570 16 -710 107 -1321 502
-1712 1105 -185 284 -310 619 -363 970 -23 149 -30 420 -16 570 44 461 212
894 490 1265 97 128 288 325 416 428 722 582 1698 705 2557 324 l37 -17 84
123 c46 67 95 139 108 159 13 21 28 36 33 35 5 -2 141 -277 302 -612z"/>
</g>
</svg>
